HIERARCHY
ROOT Pelvis
{
	OFFSET 0.000000 0.000000 0.000000
	CHANNELS 6 Xposition Yposition Zposition Xrotation Yrotation Zrotation
	JOINT LeftUpLeg_virtual
	{
		OFFSET 0.000000 0.000000 0.000000
		CHANNELS 3 Xrotation Yrotation Zrotation
		JOINT LeftUpLeg
		{
			OFFSET 8.479700 -4.795502 -0.379100
			CHANNELS 3 Xrotation Yrotation Zrotation
			JOINT LeftLeg
			{
				OFFSET 0.024144 -32.555107 0.112900
				CHANNELS 3 Xrotation Yrotation Zrotation
				JOINT LeftFoot
				{
					OFFSET -0.024144 -32.638630 -3.012600
					CHANNELS 3 Xrotation Yrotation Zrotation
					JOINT LeftToeBase
					{
						OFFSET 0.970200 -13.225400 11.864200
						CHANNELS 3 Xrotation Yrotation Zrotation
						End Site
						{
							OFFSET 0 0 0
						}
					}
				}
			}
		}
	}
	JOINT RightUpLeg_virtual
	{
		OFFSET 0.000000 0.000000 0.000000
		CHANNELS 3 Xrotation Yrotation Zrotation
		JOINT RightUpLeg
		{
			OFFSET -8.479700 -4.795502 -0.379100
			CHANNELS 3 Xrotation Yrotation Zrotation
			JOINT RightLeg
			{
				OFFSET -0.023144 -32.555092 0.112900
				CHANNELS 3 Xrotation Yrotation Zrotation
				JOINT RightFoot
				{
					OFFSET 0.023144 -32.638641 -3.012700
					CHANNELS 3 Xrotation Yrotation Zrotation
					JOINT RightToeBase
					{
						OFFSET -0.970200 -13.225400 11.864200
						CHANNELS 3 Xrotation Yrotation Zrotation
						End Site
						{
							OFFSET 0 0 0
						}
					}
				}
			}
		}
	}
	JOINT Hips_virtual
	{
		OFFSET 0.000000 0.000000 0.000000
		CHANNELS 3 Xrotation Yrotation Zrotation
		JOINT Hips
		{
			OFFSET -0.000000 -0.000000 -0.000000
			CHANNELS 3 Xrotation Yrotation Zrotation
			JOINT Spine
			{
				OFFSET 0.000000 7.722000 1.166200
				CHANNELS 3 Xrotation Yrotation Zrotation
				JOINT Spine1
				{
					OFFSET 0.000000 12.024101 0.248800
					CHANNELS 3 Xrotation Yrotation Zrotation
					JOINT Spine2
					{
						OFFSET 0.000000 11.502998 -0.491200
						CHANNELS 3 Xrotation Yrotation Zrotation
						JOINT Neck_virtual
						{
							OFFSET 0.000000 0.000000 0.000000
							CHANNELS 3 Xrotation Yrotation Zrotation
							JOINT Neck
							{
								OFFSET 0.000000 18.430702 -3.123100
								CHANNELS 3 Xrotation Yrotation Zrotation
								JOINT Head
								{
									OFFSET 0.000000 9.051102 1.034000
									CHANNELS 3 Xrotation Yrotation Zrotation
									End Site
									{
										OFFSET 0 0 0
									}
								}
							}
						}
						JOINT LeftShoulder_virtual
						{
							OFFSET 0.000000 0.000000 0.000000
							CHANNELS 3 Xrotation Yrotation Zrotation
							JOINT LeftShoulder
							{
								OFFSET 6.197800 13.665199 -4.064700
								CHANNELS 3 Xrotation Yrotation Zrotation
								JOINT LeftArm
								{
									OFFSET 7.778100 -0.187103 -1.709300
									CHANNELS 3 Xrotation Yrotation Zrotation
									JOINT LeftForeArm
									{
										OFFSET 22.049376 0.000000 0.000000
										CHANNELS 3 Xrotation Yrotation Zrotation
										JOINT LeftHand
										{
											OFFSET 23.009392 0.000000 0.000000
											CHANNELS 3 Xrotation Yrotation Zrotation
											End Site
											{
												OFFSET 0 0 0
											}
										}
									}
								}
							}
						}
						JOINT RightShoulder_virtual
						{
							OFFSET 0.000000 0.000000 0.000000
							CHANNELS 3 Xrotation Yrotation Zrotation
							JOINT RightShoulder
							{
								OFFSET -6.197800 13.665199 -4.064700
								CHANNELS 3 Xrotation Yrotation Zrotation
								JOINT RightArm
								{
									OFFSET -7.778100 -0.187103 -1.709300
									CHANNELS 3 Xrotation Yrotation Zrotation
									JOINT RightForeArm
									{
										OFFSET -22.049376 0.000000 0.000000
										CHANNELS 3 Xrotation Yrotation Zrotation
										JOINT RightHand
										{
											OFFSET -23.009392 0.000000 0.000000
											CHANNELS 3 Xrotation Yrotation Zrotation
											End Site
											{
												OFFSET 0 0 0
											}
										}
									}
								}
							}
						}
					}
				}
			}
		}
	}
}
MOTION
Frames: 11
Frame Time: 0.03333333
-64.113434 16.822655 3.188122 0.000000 0.000000 0.000000 -59.192639 9.178173 99.042019 -35.178835 26.224475 3.532542 63.763600 -3.543734 -7.666815 -20.346773 -11.207003 3.585930 0.000000 0.000000 0.000000 -59.192639 9.178173 99.042019 -56.118982 -6.278213 -35.080186 118.816714 10.176193 7.727609 0.857946 9.137773 29.611561 0.000000 0.000000 0.000000 -59.192639 9.178173 99.042019 0.000000 -0.000001 0.000000 13.668437 -0.316334 -6.429862 16.440303 0.246667 -3.275165 0.000000 0.000000 0.000000 16.425632 0.382575 -3.359051 55.837876 6.471001 -15.932343 0.000000 0.000000 0.000000 16.425632 0.382575 -3.359051 5.814965 1.516418 -4.688133 -74.915263 -6.740957 -27.974771 58.640801 -0.227358 0.365238 0.000000 0.000000 0.000000 16.425632 0.382575 -3.359051 4.350991 9.519743 -3.915174 -1.908428 -4.831216 1.339501 32.754616 33.258776 -23.829321 0.000000 0.000000 0.000000 
-65.131531 14.009262 3.691439 0.000000 0.000000 0.000000 -58.686884 3.798730 101.296575 -33.292073 21.995900 3.100063 65.835688 1.956118 -7.480269 -25.219787 -9.002445 1.826320 0.000000 0.000000 0.000000 -58.686884 3.798730 101.296575 -54.688327 -7.731233 -33.325046 120.382876 3.509838 5.725172 -7.682647 5.979243 27.625636 0.000000 0.000000 0.000000 -58.686884 3.798730 101.296575 0.000000 0.000002 0.000000 15.951193 -0.918000 -5.472701 15.237939 -0.553111 -2.719565 0.000000 0.000000 0.000000 15.233186 -0.442769 -2.765201 59.396104 3.808039 -15.534176 0.000000 0.000000 0.000000 15.233186 -0.442769 -2.765201 5.850626 3.867364 -9.147232 -79.175464 -4.790787 -29.369629 66.580746 -0.196859 0.415269 0.000000 0.000000 0.000000 15.233186 -0.442769 -2.765201 3.987314 5.771293 -5.369515 0.856450 3.213919 0.708520 26.740073 31.874939 -18.503121 0.000000 0.000000 0.000000 
-65.772057 12.456749 4.146737 0.000000 0.000000 0.000000 -57.954462 -0.885330 103.232920 -29.416447 17.081765 2.476268 66.679066 10.184234 -8.244889 -30.925389 -4.470135 -5.686204 0.000000 0.000000 0.000000 -57.954462 -0.885330 103.232920 -52.856454 -8.467754 -30.759344 120.814025 -4.780937 3.897996 -13.540405 3.877992 23.751920 0.000000 0.000000 0.000000 -57.954462 -0.885330 103.232920 -0.000001 -0.000002 -0.000000 17.601244 -1.662586 -4.345225 13.624181 -1.732718 -2.465776 0.000000 0.000000 0.000000 13.638206 -1.655711 -2.445541 61.075517 1.954504 -14.888458 0.000000 0.000000 0.000000 13.638206 -1.655711 -2.445541 5.241395 7.707916 -14.772697 -82.451496 -2.394243 -28.832879 71.492130 -0.210165 0.553438 0.000000 0.000000 0.000000 13.638206 -1.655711 -2.445541 4.001943 5.115518 -8.837089 0.941035 11.676206 -0.032735 16.412180 34.300138 -10.963363 0.000000 0.000000 0.000000 
-66.089798 11.677704 4.402303 0.000000 0.000000 0.000000 -57.752596 -4.882156 105.674850 -25.250424 12.878968 0.637836 67.146893 19.747795 -8.852257 -33.839400 0.705665 -12.979892 0.000000 0.000000 0.000000 -57.752596 -4.882156 105.674850 -50.585477 -7.756960 -30.671828 119.297150 -6.678054 3.372430 -14.374278 2.172122 19.464566 0.000000 0.000000 0.000000 -57.752596 -4.882156 105.674850 0.000000 -0.000001 0.000000 17.559609 -1.763559 -4.986079 12.355798 -1.761859 -1.940307 0.000000 0.000000 0.000000 12.378814 -1.624623 -1.926828 59.987694 0.650063 -12.018805 0.000000 0.000000 0.000000 12.378814 -1.624623 -1.926828 3.701486 9.640399 -19.253678 -85.769766 -1.001389 -27.598650 69.277980 -0.255669 0.574462 0.000000 0.000000 0.000000 12.378814 -1.624623 -1.926828 3.553653 17.233483 -9.962802 5.185755 5.341656 -2.433874 15.662647 31.146414 -9.027866 0.000000 0.000000 0.000000 
-67.068619 10.962105 4.456875 0.000000 0.000000 0.000000 -58.837251 -8.501519 108.115549 -23.343625 9.984844 -1.593937 65.346885 24.896987 -7.657672 -25.085973 2.406785 -10.693073 0.000000 0.000000 0.000000 -58.837251 -8.501519 108.115549 -46.413676 -7.368142 -33.557614 116.380686 -9.650115 3.322497 -13.471053 1.317889 20.120470 0.000000 0.000000 0.000000 -58.837251 -8.501519 108.115549 0.000000 0.000000 0.000000 17.208776 -1.026218 -6.114459 11.398457 -0.584642 -0.043204 0.000000 0.000000 0.000000 11.409016 -0.296426 -0.105061 54.211085 -1.921294 -8.891006 0.000000 0.000000 0.000000 11.409016 -0.296426 -0.105061 2.907747 8.859721 -22.825142 -91.371491 5.872684 -27.433308 67.652792 -0.270071 0.721419 0.000000 0.000000 0.000000 11.409016 -0.296426 -0.105061 5.114540 27.130543 -12.631176 5.284847 -4.495287 -1.329830 24.650095 25.912186 -13.127684 0.000000 0.000000 0.000000 
-69.472183 10.067581 4.047132 0.000000 0.000000 0.000000 -61.419588 -11.053170 108.805187 -23.046808 6.524474 -3.608333 59.125171 27.975289 -5.030950 -9.193349 2.684885 -2.352600 0.000000 0.000000 0.000000 -61.419588 -11.053170 108.805187 -42.474955 -8.712378 -36.538719 109.889869 -11.714904 4.442019 -8.356338 1.956732 24.957511 0.000000 0.000000 0.000000 -61.419588 -11.053170 108.805187 0.000000 -0.000002 0.000000 15.548026 -0.034296 -6.333574 11.984941 0.511990 1.982740 0.000000 0.000000 0.000000 11.975473 0.929898 1.850479 46.065617 -4.604573 -6.155223 0.000000 0.000000 0.000000 11.975473 0.929898 1.850479 3.188163 10.821017 -28.431298 -98.305902 9.137402 -31.289582 40.343120 -0.640794 0.403877 0.000000 0.000000 0.000000 11.975473 0.929898 1.850479 9.164680 22.842086 -17.904697 -7.510754 -1.340532 2.190311 31.013218 20.986113 -13.553406 0.000000 0.000000 0.000000 
-72.449120 9.237251 3.292404 0.000000 0.000000 0.000000 -65.426307 -13.098277 108.338664 -21.232656 2.239225 -5.269532 49.184288 31.040928 -2.321011 5.325107 3.917442 4.789627 0.000000 0.000000 0.000000 -65.426307 -13.098277 108.338664 -40.394265 -11.560445 -38.900366 102.358267 -12.731791 6.371723 -6.636824 2.217823 24.418754 0.000000 0.000000 0.000000 -65.426307 -13.098277 108.338664 0.000001 -0.000002 0.000000 15.317852 1.074475 -5.277746 10.109188 2.099975 3.898069 0.000000 0.000000 0.000000 10.066525 2.539765 3.718519 35.117964 -7.903665 -5.097225 0.000000 0.000000 0.000000 10.066525 2.539765 3.718519 1.459228 5.850927 -21.104771 -91.026279 18.797324 -28.629489 23.564861 -0.306038 0.116267 0.000000 0.000000 0.000000 10.066525 2.539765 3.718519 6.068689 10.397465 -16.699150 -9.280403 9.533691 4.128681 32.684187 20.235402 -12.252944 0.000000 0.000000 0.000000 
-75.027367 8.409569 2.120974 0.000000 0.000000 0.000000 -69.943910 -15.134325 107.347904 -19.340637 -2.003266 -5.349291 41.810327 34.092298 -0.777499 12.642124 6.243273 4.621458 0.000000 0.000000 0.000000 -69.943910 -15.134325 107.347904 -39.006008 -14.030647 -41.487621 94.650897 -13.775126 8.709877 -1.635258 3.002221 22.655106 0.000000 0.000000 0.000000 -69.943910 -15.134325 107.347904 0.000000 0.000000 0.000000 15.504210 0.991185 -3.837691 9.051625 1.468888 4.786601 0.000000 0.000000 0.000000 9.029061 1.903470 4.646506 24.166043 -8.424347 -5.913939 0.000000 0.000000 0.000000 9.029061 1.903470 4.646506 0.843368 1.427654 -20.279926 -100.334079 25.028735 -18.446306 27.075124 -2.483326 1.677845 0.000000 0.000000 0.000000 9.029061 1.903470 4.646506 5.944501 7.227902 -16.829868 -9.561186 11.458695 4.688777 24.922066 22.368791 -8.667052 0.000000 0.000000 0.000000 
-77.088959 7.996628 1.195173 0.000000 0.000000 0.000000 -73.715206 -16.117563 105.823229 -18.824572 -6.049565 -3.147463 38.628005 37.831311 -1.029770 19.766825 8.062115 0.720502 0.000000 0.000000 0.000000 -73.715206 -16.117563 105.823229 -37.487603 -15.738673 -42.022052 86.966394 -15.403304 10.609237 3.555346 3.489454 21.140906 0.000000 0.000000 0.000000 -73.715206 -16.117563 105.823229 0.000001 0.000000 0.000000 15.605299 0.563844 -2.249217 8.202054 0.361833 4.664763 0.000000 0.000000 0.000000 8.202696 0.736751 4.594208 14.413658 -7.422554 -4.649066 0.000000 0.000000 0.000000 8.202696 0.736751 4.594208 0.639237 -0.327106 -20.375214 -99.749811 37.617841 -14.407538 27.688861 -27.209373 19.480955 0.000000 0.000000 0.000000 8.202696 0.736751 4.594208 6.052448 5.294181 -14.880284 -13.609592 13.413015 5.858993 18.798217 23.131595 -6.242419 0.000000 0.000000 0.000000 
-78.279091 8.316219 1.127028 0.000000 0.000000 0.000000 -76.444317 -16.164013 104.337205 -18.959263 -10.328648 -0.010599 39.483609 40.618387 -2.578965 23.149159 9.111954 -5.309097 0.000000 0.000000 0.000000 -76.444317 -16.164013 104.337205 -35.845352 -16.288782 -40.936725 80.818295 -17.096872 11.584079 7.125197 3.646129 20.179196 0.000000 0.000000 0.000000 -76.444317 -16.164013 104.337205 0.000001 0.000001 -0.000000 15.103401 0.274868 -0.804755 6.831758 -0.262118 3.805028 0.000000 0.000000 0.000000 6.837219 0.001530 3.788606 10.010561 -7.241076 -0.400499 0.000000 0.000000 0.000000 6.837219 0.001530 3.788606 0.609664 -1.081674 -18.408861 -99.055379 39.530949 -7.779112 44.966335 -28.281703 36.716532 0.000000 0.000000 0.000000 6.837219 0.001530 3.788606 6.278369 6.142661 -11.789971 -13.711698 12.163489 5.399031 13.179138 23.944543 -3.932976 0.000000 0.000000 0.000000 
-79.423241 8.772217 0.974693 0.000000 0.000000 0.000000 -77.904748 -15.591182 103.095702 -19.359174 -13.684805 3.036725 41.095404 42.237722 -4.485874 24.045539 9.999302 -9.847443 0.000000 0.000000 0.000000 -77.904748 -15.591182 103.095702 -34.868041 -15.901539 -38.539974 75.779706 -18.966076 11.752667 10.087291 3.632121 19.881045 0.000000 0.000000 0.000000 -77.904748 -15.591182 103.095702 -0.000001 0.000000 0.000000 14.014645 0.156741 0.256699 5.715635 -0.628954 3.513427 0.000000 0.000000 0.000000 5.720566 -0.426747 3.525998 7.056797 -7.145803 1.609577 0.000000 0.000000 0.000000 5.720566 -0.426747 3.525998 0.648433 -1.427989 -15.892716 -96.771015 40.301934 -1.127242 60.931093 -17.973045 48.298074 0.000000 0.000000 0.000000 5.720566 -0.426747 3.525998 7.795396 10.130683 -12.171112 -10.263545 6.895281 4.151065 2.439838 25.036427 1.580968 0.000000 0.000000 0.000000 
